<svg xmlns="http://www.w3.org/2000/svg" width="14" height="14" viewBox="0 0 14 14">
  <defs>
    <style>
      .cls-1 {
        fill: #fff;
        fill-rule: evenodd;
      }
    </style>
  </defs>
  <path id="Dribble" class="cls-1" d="M7,13.181A6.181,6.181,0,1,1,13.18,7,6.184,6.184,0,0,1,7,13.181m5.213-5.336A7.746,7.746,0,0,0,8.924,7.62a22.119,22.119,0,0,1,1.023,3.764,5.282,5.282,0,0,0,2.266-3.539M9.066,11.87A22.482,22.482,0,0,0,7.935,7.864a0.089,0.089,0,0,1-.021.008,7.265,7.265,0,0,0-4.156,3.3,5.3,5.3,0,0,0,5.309.7m-5.99-1.33A8.4,8.4,0,0,1,7.369,7.054l0.209-.064C7.443,6.69,7.3,6.393,7.15,6.095a19.482,19.482,0,0,1-5.43.754c0,0.053,0,.105,0,0.158A5.291,5.291,0,0,0,3.076,10.54M1.83,5.927a19.889,19.889,0,0,0,4.885-.645A34.117,34.117,0,0,0,4.756,2.23a5.307,5.307,0,0,0-2.926,3.7M5.762,1.876A27.658,27.658,0,0,1,7.734,4.968,5.94,5.94,0,0,0,10.5,3.058,5.243,5.243,0,0,0,5.762,1.876m5.324,1.793A7.031,7.031,0,0,1,8.139,5.753C8.262,6,8.381,6.259,8.49,6.515,8.529,6.608,8.564,6.7,8.6,6.788a12.224,12.224,0,0,1,3.676.172,5.248,5.248,0,0,0-1.193-3.291"/>
</svg>
