<svg xmlns="http://www.w3.org/2000/svg" width="14" height="10" viewBox="0 0 14 10">
  <defs>
    <style>
      .cls-1 {
        fill: #fff;
        fill-rule: evenodd;
      }
    </style>
  </defs>
  <path id="twitter" class="cls-1" d="M13.183,1.165a5.232,5.232,0,0,1-1.457.4,2.565,2.565,0,0,0,1.115-1.4A5.109,5.109,0,0,1,11.23.778,2.537,2.537,0,0,0,6.843,2.515a2.658,2.658,0,0,0,.065.576A7.188,7.188,0,0,1,1.683.442a2.49,2.49,0,0,0-.346,1.271A2.537,2.537,0,0,0,2.464,3.827a2.523,2.523,0,0,1-1.148-.316V3.542A2.539,2.539,0,0,0,3.349,6.028a2.5,2.5,0,0,1-.668.088A2.967,2.967,0,0,1,2.2,6.075,2.534,2.534,0,0,0,4.575,7.833,5.089,5.089,0,0,1,1.427,8.919,4.765,4.765,0,0,1,.817,8.884a7.2,7.2,0,0,0,3.889,1.139,7.164,7.164,0,0,0,7.215-7.215c0-.109,0-0.219-0.006-0.328a5.2,5.2,0,0,0,1.268-1.315"/>
</svg>
