<svg xmlns="http://www.w3.org/2000/svg" width="28" height="24" viewBox="0 0 28 24">
  <defs>
    <style>
      .cls-1 {
        fill: #fff;
        fill-rule: evenodd;
      }
    </style>
  </defs>
  <path id="Composite_Path" data-name="Composite Path" class="cls-1" d="M8.733,13.647A5.546,5.546,0,1,0,14.28,8.1a5.547,5.547,0,0,0-5.547,5.545h0Zm17.49-9.384H20.251C19.825,2.555,19.4.849,17.691,0.849H10.867c-1.706,0-2.134,1.706-2.56,3.413H2.335A1.711,1.711,0,0,0,.629,5.968V21.326a1.712,1.712,0,0,0,1.706,1.707H26.224a1.712,1.712,0,0,0,1.706-1.707V5.968a1.711,1.711,0,0,0-1.706-1.706h0ZM14.28,21.219a7.573,7.573,0,1,1,7.571-7.572,7.571,7.571,0,0,1-7.571,7.572h0ZM26.224,9.381H22.811V7.674h3.413V9.381Z"/>
</svg>
